<svg width="372" height="33" viewBox="0 0 372 33" fill="none" xmlns="http://www.w3.org/2000/svg">
<rect width="128" height="33" rx="16.5" fill="#EE9A9A"/>
<path d="M17.56 6.112H38.44V7.744H17.56V6.112ZM27.208 6.808H29.08V16.12C29.08 17.048 29.008 17.952 28.864 18.832C28.72 19.696 28.44 20.528 28.024 21.328C27.608 22.128 27 22.88 26.2 23.584C25.4 24.288 24.344 24.92 23.032 25.48C21.736 26.04 20.128 26.528 18.208 26.944C18.144 26.8 18.048 26.632 17.92 26.44C17.792 26.248 17.656 26.048 17.512 25.84C17.384 25.648 17.256 25.488 17.128 25.36C19 25.008 20.552 24.592 21.784 24.112C23.016 23.632 23.992 23.096 24.712 22.504C25.448 21.896 25.992 21.256 26.344 20.584C26.696 19.896 26.928 19.176 27.04 18.424C27.152 17.672 27.208 16.896 27.208 16.096V6.808ZM21.472 15.136V17.584H35.152V15.136H21.472ZM21.472 11.296V13.696H35.152V11.296H21.472ZM19.744 9.784H36.952V19.072H19.744V9.784ZM22.048 19.288C22.816 20.472 23.736 21.432 24.808 22.168C25.88 22.904 27.12 23.472 28.528 23.872C29.952 24.272 31.552 24.56 33.328 24.736C35.104 24.896 37.08 25.008 39.256 25.072C39.096 25.28 38.936 25.552 38.776 25.888C38.632 26.224 38.536 26.544 38.488 26.848C36.264 26.752 34.232 26.584 32.392 26.344C30.552 26.12 28.888 25.76 27.4 25.264C25.912 24.784 24.592 24.112 23.44 23.248C22.288 22.384 21.312 21.272 20.512 19.912L22.048 19.288ZM46.024 10.144L47.248 9.088C47.84 9.36 48.456 9.68 49.096 10.048C49.752 10.416 50.36 10.792 50.92 11.176C51.496 11.56 51.968 11.92 52.336 12.256L51.064 13.432C50.712 13.096 50.256 12.736 49.696 12.352C49.136 11.952 48.536 11.56 47.896 11.176C47.256 10.776 46.632 10.432 46.024 10.144ZM57.136 6.856H57.496L57.808 6.784L58.96 7.48C58.176 8.872 57.176 10.136 55.96 11.272C54.744 12.392 53.384 13.384 51.88 14.248C50.392 15.096 48.832 15.824 47.2 16.432C45.584 17.024 43.984 17.496 42.4 17.848C42.32 17.608 42.2 17.336 42.04 17.032C41.88 16.712 41.72 16.448 41.56 16.24C43.08 15.968 44.616 15.568 46.168 15.04C47.72 14.496 49.208 13.84 50.632 13.072C52.056 12.288 53.328 11.4 54.448 10.408C55.584 9.416 56.48 8.328 57.136 7.144V6.856ZM49.096 6.856H57.568V8.392H49.096V6.856ZM50.872 4.792L52.912 5.224C51.792 6.504 50.408 7.72 48.76 8.872C47.128 10.024 45.2 11.048 42.976 11.944C42.896 11.8 42.784 11.64 42.64 11.464C42.496 11.288 42.344 11.128 42.184 10.984C42.024 10.824 41.872 10.696 41.728 10.6C43.184 10.088 44.496 9.512 45.664 8.872C46.832 8.232 47.856 7.56 48.736 6.856C49.616 6.152 50.328 5.464 50.872 4.792ZM49.096 18.928L50.44 17.896C51.064 18.216 51.712 18.592 52.384 19.024C53.072 19.44 53.712 19.872 54.304 20.32C54.896 20.752 55.384 21.168 55.768 21.568L54.352 22.72C54 22.32 53.528 21.904 52.936 21.472C52.36 21.024 51.736 20.576 51.064 20.128C50.392 19.68 49.736 19.28 49.096 18.928ZM60.616 15.256H61L61.336 15.184L62.512 15.832C61.744 17.576 60.728 19.088 59.464 20.368C58.2 21.648 56.752 22.728 55.12 23.608C53.488 24.472 51.736 25.176 49.864 25.72C48.008 26.264 46.104 26.68 44.152 26.968C44.088 26.728 43.976 26.44 43.816 26.104C43.672 25.784 43.52 25.528 43.36 25.336C45.216 25.112 47.032 24.76 48.808 24.28C50.6 23.784 52.264 23.144 53.8 22.36C55.352 21.576 56.712 20.624 57.88 19.504C59.064 18.368 59.976 17.048 60.616 15.544V15.256ZM52.84 15.256H61.096V16.816H52.84V15.256ZM54.76 13.024L56.776 13.48C55.56 14.888 54 16.224 52.096 17.488C50.192 18.752 47.92 19.848 45.28 20.776C45.216 20.632 45.112 20.472 44.968 20.296C44.84 20.12 44.704 19.952 44.56 19.792C44.432 19.616 44.304 19.48 44.176 19.384C45.856 18.84 47.384 18.224 48.76 17.536C50.136 16.848 51.328 16.112 52.336 15.328C53.344 14.544 54.152 13.776 54.76 13.024ZM66.304 6.616L67.12 5.368C67.68 5.512 68.272 5.696 68.896 5.92C69.52 6.128 70.12 6.352 70.696 6.592C71.288 6.816 71.776 7.024 72.16 7.216L71.368 8.632C70.984 8.408 70.504 8.176 69.928 7.936C69.352 7.696 68.744 7.456 68.104 7.216C67.464 6.976 66.864 6.776 66.304 6.616ZM65.104 11.68C65.968 11.456 67 11.176 68.2 10.84C69.416 10.504 70.64 10.168 71.872 9.832L72.064 11.272C70.992 11.624 69.904 11.976 68.8 12.328C67.712 12.664 66.72 12.968 65.824 13.24L65.104 11.68ZM75.424 6.592H85.048V7.96H74.368L75.424 6.592ZM84.592 6.592H84.88L85.168 6.52L86.392 6.88C86.056 7.504 85.672 8.128 85.24 8.752C84.824 9.376 84.4 9.896 83.968 10.312L82.528 9.808C82.896 9.424 83.272 8.968 83.656 8.44C84.04 7.896 84.352 7.368 84.592 6.856V6.592ZM78.4 7.096H80.056C79.912 7.944 79.696 8.704 79.408 9.376C79.136 10.032 78.736 10.616 78.208 11.128C77.696 11.64 77.024 12.08 76.192 12.448C75.36 12.8 74.336 13.096 73.12 13.336C73.04 13.144 72.912 12.92 72.736 12.664C72.56 12.408 72.4 12.2 72.256 12.04C73.36 11.864 74.28 11.632 75.016 11.344C75.768 11.056 76.368 10.72 76.816 10.336C77.28 9.936 77.632 9.472 77.872 8.944C78.128 8.4 78.304 7.784 78.4 7.096ZM79.984 7.504C80.096 8.016 80.272 8.52 80.512 9.016C80.768 9.496 81.144 9.952 81.64 10.384C82.136 10.816 82.808 11.192 83.656 11.512C84.52 11.832 85.624 12.088 86.968 12.28C86.808 12.456 86.632 12.696 86.44 13C86.248 13.288 86.112 13.544 86.032 13.768C84.608 13.512 83.44 13.176 82.528 12.76C81.616 12.328 80.896 11.84 80.368 11.296C79.84 10.736 79.432 10.152 79.144 9.544C78.872 8.92 78.656 8.296 78.496 7.672L79.984 7.504ZM75.808 4.84L77.416 5.08C77.016 5.96 76.496 6.832 75.856 7.696C75.232 8.544 74.456 9.328 73.528 10.048C73.368 9.888 73.152 9.72 72.88 9.544C72.624 9.368 72.384 9.24 72.16 9.16C73.056 8.536 73.808 7.84 74.416 7.072C75.024 6.288 75.488 5.544 75.808 4.84ZM70.096 17.368V19.024H82.192V17.368H70.096ZM70.096 20.176V21.856H82.192V20.176H70.096ZM70.096 14.584V16.192H82.192V14.584H70.096ZM68.344 13.36H83.992V23.056H68.344V13.36ZM78.016 24.304L79.48 23.392C80.36 23.664 81.248 23.952 82.144 24.256C83.04 24.56 83.888 24.864 84.688 25.168C85.488 25.488 86.176 25.784 86.752 26.056L84.736 26.968C84.24 26.712 83.632 26.432 82.912 26.128C82.192 25.824 81.416 25.512 80.584 25.192C79.752 24.888 78.896 24.592 78.016 24.304ZM72.352 23.32L74.008 24.064C73.352 24.448 72.6 24.824 71.752 25.192C70.92 25.56 70.056 25.896 69.16 26.2C68.264 26.504 67.416 26.768 66.616 26.992C66.52 26.864 66.392 26.712 66.232 26.536C66.072 26.376 65.904 26.208 65.728 26.032C65.568 25.872 65.416 25.744 65.272 25.648C66.104 25.472 66.952 25.264 67.816 25.024C68.696 24.784 69.528 24.52 70.312 24.232C71.096 23.944 71.776 23.64 72.352 23.32ZM98.176 6.064H107.704V7.768H98.176V6.064ZM97.936 14.248H105.976V15.952H97.936V14.248ZM101.2 7.024H102.928V12.856C102.928 14.024 102.88 15.224 102.784 16.456C102.688 17.688 102.488 18.912 102.184 20.128C101.88 21.344 101.416 22.536 100.792 23.704C100.184 24.856 99.36 25.944 98.32 26.968C98.24 26.84 98.12 26.696 97.96 26.536C97.8 26.376 97.632 26.224 97.456 26.08C97.296 25.936 97.144 25.824 97 25.744C97.96 24.784 98.72 23.776 99.28 22.72C99.84 21.648 100.256 20.56 100.528 19.456C100.816 18.336 101 17.216 101.08 16.096C101.16 14.976 101.2 13.888 101.2 12.832V7.024ZM106.792 6.064H108.616C108.6 7.76 108.584 9.4 108.568 10.984C108.568 12.552 108.568 14.032 108.568 15.424C108.584 16.8 108.624 18.056 108.688 19.192C108.752 20.328 108.84 21.312 108.952 22.144C109.064 22.976 109.216 23.632 109.408 24.112C109.6 24.592 109.832 24.872 110.104 24.952C110.168 24.968 110.232 24.8 110.296 24.448C110.36 24.096 110.416 23.632 110.464 23.056C110.512 22.48 110.552 21.856 110.584 21.184C110.696 21.328 110.816 21.488 110.944 21.664C111.088 21.824 111.224 21.984 111.352 22.144C111.496 22.288 111.608 22.4 111.688 22.48C111.608 23.808 111.464 24.808 111.256 25.48C111.048 26.152 110.784 26.576 110.464 26.752C110.16 26.944 109.8 26.96 109.384 26.8C108.824 26.624 108.368 26.144 108.016 25.36C107.68 24.592 107.424 23.576 107.248 22.312C107.072 21.048 106.952 19.576 106.888 17.896C106.84 16.216 106.808 14.384 106.792 12.4C106.792 10.4 106.792 8.288 106.792 6.064ZM90.04 12.112H97.072V13.528H90.04V12.112ZM90.136 5.68H96.976V7.12H90.136V5.68ZM90.04 15.304H97.072V16.744H90.04V15.304ZM88.912 8.824H97.864V10.336H88.912V8.824ZM90.856 18.544H97.096V25.552H90.856V24.064H95.512V20.056H90.856V18.544ZM90.016 18.544H91.6V26.656H90.016V18.544Z" fill="black"/>
<rect x="244" width="128" height="33" rx="16.5" fill="#EE9A9A"/>
<path d="M274.52 23.056H281.048V24.784H274.52V23.056ZM261.272 9.376H270.512V11.152H261.272V9.376ZM273.728 7.816H281.912V26.368H280.112V9.568H275.456V26.56H273.728V7.816ZM270.032 9.376H271.76C271.76 9.376 271.76 9.44 271.76 9.568C271.76 9.68 271.76 9.816 271.76 9.976C271.76 10.12 271.76 10.232 271.76 10.312C271.712 12.984 271.664 15.232 271.616 17.056C271.568 18.88 271.504 20.376 271.424 21.544C271.344 22.696 271.24 23.584 271.112 24.208C271 24.832 270.848 25.272 270.656 25.528C270.432 25.832 270.2 26.048 269.96 26.176C269.72 26.32 269.424 26.416 269.072 26.464C268.736 26.512 268.304 26.528 267.776 26.512C267.264 26.512 266.744 26.496 266.216 26.464C266.2 26.192 266.144 25.888 266.048 25.552C265.968 25.216 265.848 24.92 265.688 24.664C266.248 24.712 266.768 24.744 267.248 24.76C267.728 24.76 268.072 24.76 268.28 24.76C268.456 24.776 268.608 24.76 268.736 24.712C268.864 24.648 268.984 24.536 269.096 24.376C269.224 24.2 269.336 23.824 269.432 23.248C269.528 22.656 269.616 21.8 269.696 20.68C269.776 19.56 269.84 18.112 269.888 16.336C269.936 14.544 269.984 12.368 270.032 9.808V9.376ZM264.68 5.152H266.456C266.44 7.376 266.4 9.544 266.336 11.656C266.272 13.768 266.104 15.768 265.832 17.656C265.576 19.544 265.144 21.28 264.536 22.864C263.944 24.432 263.12 25.792 262.064 26.944C261.968 26.8 261.84 26.648 261.68 26.488C261.52 26.344 261.352 26.2 261.176 26.056C261 25.912 260.832 25.792 260.672 25.696C261.472 24.864 262.12 23.888 262.616 22.768C263.128 21.648 263.528 20.424 263.816 19.096C264.104 17.752 264.304 16.328 264.416 14.824C264.544 13.304 264.616 11.736 264.632 10.12C264.664 8.488 264.68 6.832 264.68 5.152ZM289.472 6.304H296.264V8.128H289.472V6.304ZM295.352 6.304H297.176C297.176 7.008 297.208 7.84 297.272 8.8C297.336 9.76 297.472 10.792 297.68 11.896C297.888 12.984 298.208 14.12 298.64 15.304C299.072 16.488 299.656 17.672 300.392 18.856C301.128 20.024 302.048 21.16 303.152 22.264C304.272 23.368 305.624 24.384 307.208 25.312C307.08 25.424 306.912 25.568 306.704 25.744C306.512 25.936 306.328 26.128 306.152 26.32C305.992 26.528 305.856 26.704 305.744 26.848C304.144 25.872 302.768 24.8 301.616 23.632C300.48 22.448 299.528 21.216 298.76 19.936C298.008 18.656 297.4 17.376 296.936 16.096C296.488 14.8 296.144 13.552 295.904 12.352C295.68 11.136 295.528 10.008 295.448 8.968C295.384 7.928 295.352 7.04 295.352 6.304ZM294.656 11.008L296.696 11.368C296.12 13.8 295.368 15.992 294.44 17.944C293.528 19.896 292.416 21.616 291.104 23.104C289.808 24.576 288.272 25.832 286.496 26.872C286.4 26.744 286.248 26.592 286.04 26.416C285.848 26.24 285.64 26.056 285.416 25.864C285.208 25.688 285.024 25.544 284.864 25.432C287.536 24.024 289.656 22.12 291.224 19.72C292.792 17.304 293.936 14.4 294.656 11.008ZM314 9.76V11.464H326.048V9.76H314ZM314 6.88V8.56H326.048V6.88H314ZM312.272 5.608H327.848V12.736H312.272V5.608ZM309.392 14.08H330.56V15.592H309.392V14.08ZM320.072 17.08H328.592V18.544H320.072V17.08ZM312.536 17.224H318.44V18.592H312.536V17.224ZM312.536 20.272H318.44V21.616H312.536V20.272ZM322.568 18.424C323.272 20.152 324.36 21.64 325.832 22.888C327.32 24.12 329.08 24.992 331.112 25.504C331 25.616 330.872 25.752 330.728 25.912C330.584 26.088 330.448 26.256 330.32 26.416C330.208 26.592 330.112 26.752 330.032 26.896C327.92 26.272 326.104 25.272 324.584 23.896C323.08 22.504 321.928 20.824 321.128 18.856L322.568 18.424ZM328.04 17.08H328.376L328.688 17.008L329.792 17.464C329.264 19.096 328.512 20.52 327.536 21.736C326.56 22.952 325.44 23.984 324.176 24.832C322.912 25.664 321.584 26.312 320.192 26.776C320.096 26.568 319.944 26.32 319.736 26.032C319.544 25.744 319.36 25.52 319.184 25.36C320.144 25.088 321.08 24.704 321.992 24.208C322.92 23.712 323.776 23.128 324.56 22.456C325.36 21.784 326.056 21.024 326.648 20.176C327.256 19.312 327.72 18.376 328.04 17.368V17.08ZM309.176 23.944C309.96 23.864 310.848 23.776 311.84 23.68C312.848 23.584 313.912 23.472 315.032 23.344C316.152 23.216 317.272 23.088 318.392 22.96L318.416 24.448C316.784 24.656 315.176 24.856 313.592 25.048C312.008 25.24 310.592 25.408 309.344 25.552L309.176 23.944ZM317.504 14.56H319.232V26.92H317.504V14.56ZM311.48 14.608H313.136V24.352H311.48V14.608ZM333.896 10.432H354.128V14.8H352.328V11.896H335.6V14.632H333.896V10.432ZM351.656 4.816L352.856 6.088C351.736 6.312 350.456 6.52 349.016 6.712C347.592 6.888 346.08 7.04 344.48 7.168C342.896 7.296 341.296 7.4 339.68 7.48C338.08 7.56 336.536 7.616 335.048 7.648C335.032 7.44 334.984 7.2 334.904 6.928C334.824 6.656 334.744 6.432 334.664 6.256C336.136 6.224 337.664 6.168 339.248 6.088C340.832 6.008 342.384 5.904 343.904 5.776C345.44 5.648 346.872 5.512 348.2 5.368C349.544 5.208 350.696 5.024 351.656 4.816ZM336.824 7.888L338.264 7.288C338.648 7.704 339 8.176 339.32 8.704C339.656 9.216 339.888 9.68 340.016 10.096L338.48 10.768C338.368 10.368 338.152 9.896 337.832 9.352C337.512 8.808 337.176 8.32 336.824 7.888ZM342.056 7.432L343.544 6.904C343.896 7.352 344.208 7.864 344.48 8.44C344.768 9 344.968 9.488 345.08 9.904L343.496 10.48C343.416 10.064 343.24 9.568 342.968 8.992C342.696 8.416 342.392 7.896 342.056 7.432ZM348.512 13.888L349.736 13.024C350.2 13.376 350.672 13.776 351.152 14.224C351.648 14.656 352.104 15.096 352.52 15.544C352.952 15.976 353.288 16.376 353.528 16.744L352.208 17.704C351.968 17.352 351.64 16.952 351.224 16.504C350.824 16.04 350.384 15.584 349.904 15.136C349.44 14.672 348.976 14.256 348.512 13.888ZM341.744 12.664L342.68 11.68C343.304 11.936 343.96 12.256 344.648 12.64C345.336 13.008 345.88 13.352 346.28 13.672L345.344 14.776C344.944 14.44 344.4 14.072 343.712 13.672C343.04 13.272 342.384 12.936 341.744 12.664ZM350.12 6.88L351.872 7.528C351.44 8.168 350.976 8.816 350.48 9.472C350 10.112 349.56 10.664 349.16 11.128L347.816 10.552C348.072 10.216 348.344 9.84 348.632 9.424C348.92 8.992 349.2 8.552 349.472 8.104C349.744 7.64 349.96 7.232 350.12 6.88ZM348.704 19.096H349.088L349.4 19.024L350.552 19.792C349.784 20.896 348.824 21.856 347.672 22.672C346.52 23.488 345.216 24.176 343.76 24.736C342.32 25.296 340.792 25.752 339.176 26.104C337.56 26.472 335.92 26.76 334.256 26.968C334.208 26.824 334.128 26.656 334.016 26.464C333.904 26.272 333.784 26.088 333.656 25.912C333.528 25.736 333.408 25.584 333.296 25.456C334.944 25.312 336.552 25.088 338.12 24.784C339.688 24.48 341.152 24.08 342.512 23.584C343.888 23.088 345.104 22.496 346.16 21.808C347.216 21.104 348.064 20.288 348.704 19.36V19.096ZM339.728 20.056C340.432 20.824 341.304 21.512 342.344 22.12C343.384 22.712 344.56 23.232 345.872 23.68C347.2 24.112 348.616 24.464 350.12 24.736C351.64 25.008 353.216 25.216 354.848 25.36C354.72 25.472 354.592 25.624 354.464 25.816C354.336 26.024 354.208 26.224 354.08 26.416C353.968 26.624 353.872 26.8 353.792 26.944C352.16 26.784 350.584 26.536 349.064 26.2C347.544 25.88 346.112 25.464 344.768 24.952C343.424 24.424 342.2 23.808 341.096 23.104C340.008 22.4 339.08 21.584 338.312 20.656L339.728 20.056ZM341.36 17.104L342.944 17.656C342.288 18.472 341.512 19.24 340.616 19.96C339.736 20.68 338.8 21.336 337.808 21.928C336.832 22.504 335.856 23.008 334.88 23.44C334.8 23.328 334.68 23.2 334.52 23.056C334.376 22.896 334.216 22.744 334.04 22.6C333.88 22.456 333.736 22.336 333.608 22.24C334.616 21.856 335.6 21.408 336.56 20.896C337.536 20.368 338.44 19.784 339.272 19.144C340.104 18.488 340.8 17.808 341.36 17.104ZM339.8 13.288H341.48V15.592C341.48 15.832 341.552 15.992 341.696 16.072C341.856 16.136 342.184 16.168 342.68 16.168C342.792 16.168 343 16.168 343.304 16.168C343.624 16.168 343.976 16.168 344.36 16.168C344.744 16.168 345.104 16.168 345.44 16.168C345.792 16.168 346.048 16.168 346.208 16.168C346.464 16.168 346.656 16.136 346.784 16.072C346.912 15.992 347 15.84 347.048 15.616C347.112 15.392 347.16 15.048 347.192 14.584C347.368 14.696 347.592 14.8 347.864 14.896C348.136 14.976 348.384 15.04 348.608 15.088C348.56 15.744 348.464 16.248 348.32 16.6C348.176 16.936 347.952 17.176 347.648 17.32C347.344 17.448 346.928 17.512 346.4 17.512C346.304 17.512 346.12 17.512 345.848 17.512C345.592 17.512 345.296 17.512 344.96 17.512C344.624 17.512 344.28 17.512 343.928 17.512C343.592 17.512 343.296 17.512 343.04 17.512C342.784 17.512 342.608 17.512 342.512 17.512C341.792 17.512 341.232 17.464 340.832 17.368C340.448 17.256 340.176 17.064 340.016 16.792C339.872 16.504 339.8 16.104 339.8 15.592V13.288ZM337.448 13.336L338.84 13.912C338.568 14.68 338.184 15.44 337.688 16.192C337.208 16.928 336.568 17.536 335.768 18.016L334.52 16.984C335.24 16.584 335.84 16.056 336.32 15.4C336.816 14.728 337.192 14.04 337.448 13.336ZM340.28 19.096H349.112V20.416H338.936L340.28 19.096Z" fill="black"/>
</svg>
