<svg width="204" height="32" viewBox="0 0 204 32" fill="none" xmlns="http://www.w3.org/2000/svg">
<path d="M0.672 3.008H6.592V4.72H0.672V3.008ZM2.416 6.416H5.216V7.984H2.416V6.416ZM7.056 13.168H9.44V14.464H7.056V13.168ZM12.048 13.168H14.496V14.464H12.048V13.168ZM2.416 9.68H5.216V11.248H2.416V9.68ZM1.408 3.92H2.976V13.968H1.408V3.92ZM4.224 3.904H5.824V17.44H4.224V3.904ZM11.104 10.32H12.656V17.44H11.104V10.32ZM6.544 10.8H7.936V15.04H6.544V10.8ZM13.584 10.8H15.024V15.024H13.584V10.8ZM0.4 13.568C0.997333 13.4827 1.70133 13.376 2.512 13.248C3.32267 13.1093 4.14933 12.9653 4.992 12.816L5.12 14.464C4.36267 14.624 3.6 14.7787 2.832 14.928C2.07467 15.0773 1.36533 15.216 0.704 15.344L0.4 13.568ZM8.8 10.336H10.336V13.168C10.336 13.7653 10.2773 14.336 10.16 14.88C10.0427 15.424 9.79733 15.9147 9.424 16.352C9.06133 16.8 8.50133 17.184 7.744 17.504C7.69067 17.3867 7.61067 17.248 7.504 17.088C7.39733 16.928 7.28 16.768 7.152 16.608C7.03467 16.4587 6.92267 16.3413 6.816 16.256C7.40267 16.0107 7.83467 15.728 8.112 15.408C8.38933 15.0773 8.57067 14.72 8.656 14.336C8.752 13.952 8.8 13.5573 8.8 13.152V10.336ZM6.112 8.8C6.63467 8.768 7.248 8.72533 7.952 8.672C8.656 8.61867 9.38667 8.56533 10.144 8.512L10.16 9.744C9.47733 9.81867 8.80533 9.888 8.144 9.952C7.48267 10.016 6.864 10.0747 6.288 10.128L6.112 8.8ZM6.32 5.552L7.104 4.448C7.46667 4.736 7.83467 5.06667 8.208 5.44C8.592 5.81333 8.87467 6.14933 9.056 6.448L8.224 7.696C8.05333 7.38667 7.78133 7.02933 7.408 6.624C7.04533 6.21867 6.68267 5.86133 6.32 5.552ZM9.184 7.76L10.288 7.44C10.4907 7.81333 10.6613 8.224 10.8 8.672C10.9387 9.10933 11.024 9.48267 11.056 9.792L9.872 10.176C9.85067 9.856 9.776 9.472 9.648 9.024C9.52 8.576 9.36533 8.15467 9.184 7.76ZM8.224 2.416L9.776 2.88C9.49867 3.38133 9.20533 3.89867 8.896 4.432C8.59733 4.96533 8.32533 5.41867 8.08 5.792L7.056 5.392C7.20533 5.11467 7.35467 4.8 7.504 4.448C7.65333 4.096 7.792 3.744 7.92 3.392C8.048 3.02933 8.14933 2.704 8.224 2.416ZM9.408 4.48L10.816 4.976C10.5173 5.46667 10.192 5.98933 9.84 6.544C9.49867 7.09867 9.152 7.632 8.8 8.144C8.45867 8.64533 8.13333 9.088 7.824 9.472L6.848 9.04C7.14667 8.63467 7.456 8.17067 7.776 7.648C8.096 7.11467 8.4 6.57067 8.688 6.016C8.976 5.45067 9.216 4.93867 9.408 4.48ZM10.768 8.752C11.2907 8.72 11.904 8.67733 12.608 8.624C13.312 8.57067 14.0427 8.51733 14.8 8.464L14.816 9.68C14.144 9.75467 13.4773 9.82933 12.816 9.904C12.1653 9.968 11.5573 10.032 10.992 10.096L10.768 8.752ZM10.624 5.52L11.376 4.368C11.76 4.64533 12.144 4.97067 12.528 5.344C12.9227 5.71733 13.2107 6.05867 13.392 6.368L12.592 7.664C12.4213 7.344 12.144 6.98667 11.76 6.592C11.3867 6.18667 11.008 5.82933 10.624 5.52ZM13.616 7.776L14.768 7.408C14.992 7.824 15.1893 8.27733 15.36 8.768C15.5307 9.25867 15.632 9.68 15.664 10.032L14.432 10.464C14.4 10.1013 14.3093 9.67467 14.16 9.184C14.0107 8.68267 13.8293 8.21333 13.616 7.776ZM12.592 2.416L14.176 2.896C13.888 3.39733 13.5893 3.92 13.28 4.464C12.9707 4.99733 12.688 5.44533 12.432 5.808L11.36 5.392C11.5093 5.11467 11.6587 4.80533 11.808 4.464C11.968 4.112 12.112 3.76 12.24 3.408C12.3787 3.04533 12.496 2.71467 12.592 2.416ZM13.808 4.432L15.28 4.96C14.9813 5.45067 14.656 5.97333 14.304 6.528C13.9627 7.072 13.6213 7.6 13.28 8.112C12.9387 8.624 12.608 9.06667 12.288 9.44L11.28 8.992C11.5787 8.58667 11.8827 8.11733 12.192 7.584C12.512 7.05067 12.8107 6.50667 13.088 5.952C13.3653 5.39733 13.6053 4.89067 13.808 4.432ZM23.392 11.28H30.544V17.376H28.672V12.912H25.184V17.424H23.392V11.28ZM24.432 15.12H29.264V16.784H24.432V15.12ZM25.264 2.4L27.12 2.72C26.8427 3.37067 26.5067 4.016 26.112 4.656C25.728 5.296 25.28 5.91467 24.768 6.512C24.2667 7.10933 23.6853 7.66933 23.024 8.192C22.9387 8.064 22.8213 7.91467 22.672 7.744C22.5227 7.57333 22.368 7.41867 22.208 7.28C22.048 7.13067 21.8933 7.01333 21.744 6.928C22.3413 6.50133 22.864 6.032 23.312 5.52C23.7707 5.008 24.16 4.48533 24.48 3.952C24.8 3.41867 25.0613 2.90133 25.264 2.4ZM25.472 3.824H29.472V5.472H24.656L25.472 3.824ZM28.96 3.824H29.328L29.648 3.76L30.816 4.416C30.3467 5.64267 29.712 6.74133 28.912 7.712C28.1227 8.68267 27.232 9.52 26.24 10.224C25.248 10.9173 24.2133 11.472 23.136 11.888C23.0613 11.7387 22.9547 11.568 22.816 11.376C22.688 11.184 22.544 10.9973 22.384 10.816C22.2347 10.624 22.096 10.4747 21.968 10.368C23.0133 10.016 24 9.54667 24.928 8.96C25.8667 8.36267 26.6827 7.664 27.376 6.864C28.08 6.05333 28.608 5.152 28.96 4.16V3.824ZM25.248 5.312C25.6853 5.984 26.2453 6.62933 26.928 7.248C27.6107 7.86667 28.368 8.42133 29.2 8.912C30.0427 9.392 30.912 9.78133 31.808 10.08C31.6693 10.1973 31.52 10.352 31.36 10.544C31.2 10.7253 31.0507 10.912 30.912 11.104C30.784 11.296 30.672 11.4667 30.576 11.616C29.6587 11.2533 28.768 10.7893 27.904 10.224C27.0507 9.648 26.2613 9.00267 25.536 8.288C24.8213 7.56267 24.2027 6.78933 23.68 5.968L25.248 5.312ZM18.88 2.416L20.544 3.04C20.3307 3.44533 20.1067 3.86667 19.872 4.304C19.6373 4.74133 19.408 5.15733 19.184 5.552C18.96 5.94667 18.7467 6.288 18.544 6.576L17.264 6.032C17.456 5.70133 17.6533 5.328 17.856 4.912C18.0587 4.496 18.2507 4.06933 18.432 3.632C18.6133 3.19467 18.7627 2.78933 18.88 2.416ZM20.72 4.32L22.288 5.024C21.904 5.632 21.4827 6.272 21.024 6.944C20.5653 7.60533 20.1067 8.24533 19.648 8.864C19.1893 9.472 18.7573 10.0053 18.352 10.464L17.232 9.84C17.5307 9.47733 17.84 9.072 18.16 8.624C18.48 8.16533 18.7947 7.69067 19.104 7.2C19.424 6.69867 19.7227 6.20267 20 5.712C20.2773 5.21067 20.5173 4.74667 20.72 4.32ZM16.416 6.208L17.344 4.896C17.6213 5.14133 17.904 5.41333 18.192 5.712C18.4907 6 18.7627 6.29333 19.008 6.592C19.264 6.88 19.456 7.14133 19.584 7.376L18.608 8.864C18.48 8.608 18.2933 8.32533 18.048 8.016C17.8133 7.70667 17.552 7.392 17.264 7.072C16.976 6.752 16.6933 6.464 16.416 6.208ZM20.256 8.128L21.52 7.6C21.7227 7.96267 21.92 8.352 22.112 8.768C22.304 9.17333 22.4693 9.568 22.608 9.952C22.7573 10.336 22.864 10.6827 22.928 10.992L21.568 11.6C21.5147 11.2907 21.4187 10.9387 21.28 10.544C21.152 10.1387 20.9973 9.728 20.816 9.312C20.6347 8.88533 20.448 8.49067 20.256 8.128ZM16.4 9.456C17.136 9.43467 18.016 9.40267 19.04 9.36C20.064 9.31733 21.104 9.27467 22.16 9.232L22.144 10.752C21.152 10.8267 20.1653 10.896 19.184 10.96C18.2133 11.024 17.3387 11.0827 16.56 11.136L16.4 9.456ZM20.592 12.112L21.936 11.68C22.1387 12.1387 22.3307 12.64 22.512 13.184C22.704 13.7173 22.848 14.1867 22.944 14.592L21.52 15.104C21.4453 14.6987 21.3173 14.2187 21.136 13.664C20.9547 13.0987 20.7733 12.5813 20.592 12.112ZM17.104 11.808L18.688 12.096C18.6027 12.864 18.4747 13.6213 18.304 14.368C18.1333 15.1147 17.936 15.744 17.712 16.256C17.6053 16.1813 17.4613 16.096 17.28 16C17.0987 15.9147 16.912 15.8293 16.72 15.744C16.5387 15.6587 16.3787 15.5947 16.24 15.552C16.4747 15.072 16.6613 14.5013 16.8 13.84C16.9387 13.168 17.04 12.4907 17.104 11.808ZM18.896 10.304H20.576V17.44H18.896V10.304ZM43.28 3.824L44.72 2.848C45.008 3.09333 45.3013 3.37067 45.6 3.68C45.9093 3.97867 46.1973 4.28267 46.464 4.592C46.7413 4.89067 46.9547 5.168 47.104 5.424L45.552 6.496C45.424 6.24 45.232 5.95733 44.976 5.648C44.7307 5.328 44.4587 5.01333 44.16 4.704C43.8613 4.384 43.568 4.09067 43.28 3.824ZM32.8 6.96H47.232V8.768H32.8V6.96ZM32.496 11.472C33.136 11.376 33.8827 11.2587 34.736 11.12C35.5893 10.9813 36.4907 10.8267 37.44 10.656C38.4 10.4853 39.344 10.32 40.272 10.16L40.4 11.888C39.5467 12.0693 38.6773 12.2507 37.792 12.432C36.9173 12.6133 36.064 12.7893 35.232 12.96C34.4107 13.12 33.6533 13.2693 32.96 13.408L32.496 11.472ZM35.824 4.368H37.76V15.184C37.76 15.7067 37.696 16.112 37.568 16.4C37.4507 16.688 37.232 16.9067 36.912 17.056C36.592 17.2053 36.192 17.3013 35.712 17.344C35.232 17.3973 34.6613 17.424 34 17.424C33.9787 17.2427 33.9307 17.0347 33.856 16.8C33.7813 16.5653 33.696 16.3307 33.6 16.096C33.5147 15.8613 33.424 15.6587 33.328 15.488C33.776 15.5093 34.208 15.52 34.624 15.52C35.04 15.52 35.3173 15.5147 35.456 15.504C35.5947 15.504 35.6907 15.4827 35.744 15.44C35.7973 15.3867 35.824 15.296 35.824 15.168V4.368ZM39.104 2.512L40.416 4.144C39.7227 4.35733 38.9707 4.54933 38.16 4.72C37.3493 4.88 36.5227 5.024 35.68 5.152C34.848 5.28 34.0427 5.38667 33.264 5.472C33.232 5.248 33.1573 4.976 33.04 4.656C32.9333 4.336 32.8267 4.06933 32.72 3.856C33.4667 3.76 34.2293 3.64267 35.008 3.504C35.7867 3.36533 36.528 3.21067 37.232 3.04C37.936 2.86933 38.56 2.69333 39.104 2.512ZM40.688 2.528H42.688C42.6667 3.81867 42.6987 5.09333 42.784 6.352C42.88 7.61067 43.0187 8.79467 43.2 9.904C43.3813 11.0027 43.5947 11.9787 43.84 12.832C44.0853 13.6747 44.3467 14.336 44.624 14.816C44.9013 15.296 45.1893 15.536 45.488 15.536C45.6587 15.536 45.7867 15.328 45.872 14.912C45.968 14.496 46.0373 13.8133 46.08 12.864C46.2827 13.0773 46.5333 13.2907 46.832 13.504C47.1307 13.7067 47.408 13.8613 47.664 13.968C47.5573 14.9067 47.4133 15.6267 47.232 16.128C47.0507 16.64 46.8 16.992 46.48 17.184C46.1707 17.3867 45.776 17.488 45.296 17.488C44.7413 17.488 44.24 17.2853 43.792 16.88C43.3547 16.4853 42.9653 15.9307 42.624 15.216C42.2933 14.5013 42.0053 13.6693 41.76 12.72C41.5253 11.76 41.328 10.7253 41.168 9.616C41.008 8.496 40.8907 7.33333 40.816 6.128C40.7413 4.92267 40.6987 3.72267 40.688 2.528ZM45.04 9.296L46.72 10.032C46.176 11.024 45.5307 11.9467 44.784 12.8C44.0373 13.6533 43.2213 14.4267 42.336 15.12C41.4507 15.8027 40.5227 16.4 39.552 16.912C39.4133 16.6773 39.2213 16.416 38.976 16.128C38.7413 15.84 38.5013 15.5893 38.256 15.376C39.1733 14.9493 40.0587 14.432 40.912 13.824C41.776 13.216 42.56 12.528 43.264 11.76C43.968 10.992 44.56 10.1707 45.04 9.296ZM54.144 5.616H56.96V6.992H54.144V5.616ZM58.96 5.616H61.792V6.992H58.96V5.616ZM61.232 3.264H63.056V15.216C63.056 15.728 62.992 16.1227 62.864 16.4C62.7467 16.688 62.5227 16.9067 62.192 17.056C61.8613 17.2053 61.4347 17.296 60.912 17.328C60.4 17.3707 59.7653 17.392 59.008 17.392C58.9867 17.2213 58.944 17.024 58.88 16.8C58.816 16.576 58.7413 16.352 58.656 16.128C58.5707 15.904 58.48 15.712 58.384 15.552C58.7147 15.5733 59.0453 15.5893 59.376 15.6C59.7067 15.6 60 15.6 60.256 15.6C60.5227 15.5893 60.7093 15.584 60.816 15.584C60.9653 15.584 61.072 15.5573 61.136 15.504C61.2 15.44 61.232 15.3333 61.232 15.184V3.264ZM53.024 3.264H54.8V17.392H53.024V3.264ZM54.24 3.264H57.568V9.392H54.24V7.952H56.112V4.72H54.24V3.264ZM62.112 3.264V4.72H59.792V7.952H62.112V9.392H58.272V3.264H62.112ZM51.36 2.432L53.136 2.96C52.8373 3.888 52.4747 4.82667 52.048 5.776C51.632 6.72533 51.1733 7.62667 50.672 8.48C50.1707 9.32267 49.648 10.064 49.104 10.704C49.0613 10.5547 48.9867 10.3467 48.88 10.08C48.7733 9.81333 48.656 9.54667 48.528 9.28C48.4 9.01333 48.288 8.79467 48.192 8.624C48.6187 8.12267 49.0293 7.54133 49.424 6.88C49.8293 6.21867 50.1973 5.50933 50.528 4.752C50.8587 3.984 51.136 3.21067 51.36 2.432ZM50.08 6.832L51.856 5.056L51.904 5.088V17.424H50.08V6.832Z" fill="black"/>
<path d="M121 1H118C116.674 1 115.402 1.52678 114.464 2.46447C113.527 3.40215 113 4.67392 113 6V9H110V13H113V21H117V13H120L121 9H117V6C117 5.73478 117.105 5.48043 117.293 5.29289C117.48 5.10536 117.735 5 118 5H121V1Z" stroke="black" stroke-width="2" stroke-linecap="round" stroke-linejoin="round"/>
<path d="M146 3H136C133.239 3 131 5.23858 131 8V18C131 20.7614 133.239 23 136 23H146C148.761 23 151 20.7614 151 18V8C151 5.23858 148.761 3 146 3Z" stroke="black" stroke-width="2" stroke-linecap="round" stroke-linejoin="round"/>
<path d="M145 12.3701C145.123 13.2023 144.981 14.0523 144.594 14.7991C144.206 15.5459 143.593 16.1515 142.842 16.5297C142.09 16.908 141.238 17.0397 140.408 16.906C139.577 16.7723 138.81 16.3801 138.215 15.7852C137.62 15.1903 137.228 14.4229 137.094 13.5923C136.96 12.7616 137.092 11.91 137.47 11.1584C137.849 10.4069 138.454 9.7938 139.201 9.4063C139.948 9.0188 140.798 8.87665 141.63 9.00006C142.479 9.12594 143.265 9.52152 143.872 10.1284C144.479 10.7352 144.874 11.5211 145 12.3701Z" stroke="black" stroke-width="2" stroke-linecap="round" stroke-linejoin="round"/>
<path d="M146.5 7.5H146.51" stroke="black" stroke-width="2" stroke-linecap="round" stroke-linejoin="round"/>
<path d="M171 14C171.429 14.5741 171.977 15.0491 172.607 15.3929C173.236 15.7367 173.932 15.9411 174.647 15.9923C175.362 16.0435 176.08 15.9403 176.751 15.6897C177.423 15.4392 178.033 15.047 178.54 14.54L181.54 11.54C182.451 10.597 182.955 9.33394 182.943 8.02296C182.932 6.71198 182.406 5.45791 181.479 4.53087C180.552 3.60383 179.298 3.07799 177.987 3.0666C176.676 3.0552 175.413 3.55918 174.47 4.46997L172.75 6.17997" stroke="black" stroke-width="2" stroke-linecap="round" stroke-linejoin="round"/>
<path d="M175 12C174.571 11.4259 174.023 10.9508 173.393 10.607C172.764 10.2633 172.068 10.0589 171.353 10.0076C170.638 9.95643 169.92 10.0596 169.249 10.3102C168.577 10.5608 167.967 10.9529 167.46 11.46L164.46 14.46C163.549 15.403 163.045 16.666 163.057 17.977C163.068 19.288 163.594 20.542 164.521 21.4691C165.448 22.3961 166.702 22.922 168.013 22.9334C169.324 22.9447 170.587 22.4408 171.53 21.53L173.24 19.82" stroke="black" stroke-width="2" stroke-linecap="round" stroke-linejoin="round"/>
</svg>
